<mxfile host="Electron" agent="Mozilla/5.0 (Macintosh; Intel Mac OS X 10_15_7) AppleWebKit/537.36 (KHTML, like Gecko) draw.io/27.0.9 Chrome/134.0.6998.205 Electron/35.4.0 Safari/537.36" version="27.0.9">
  <diagram name="Страница — 1" id="k1V9u2cRAjEsnUNy4prw">
    <mxGraphModel dx="2025" dy="2083" grid="1" gridSize="10" guides="1" tooltips="1" connect="1" arrows="1" fold="1" page="1" pageScale="1" pageWidth="827" pageHeight="1169" math="0" shadow="0">
      <root>
        <mxCell id="0" />
        <mxCell id="1" parent="0" />
        <mxCell id="a4DZ9cBPCvFceiV7oDwn-28" style="edgeStyle=orthogonalEdgeStyle;rounded=0;orthogonalLoop=1;jettySize=auto;html=1;entryX=0;entryY=0.5;entryDx=0;entryDy=0;exitX=1.003;exitY=0.693;exitDx=0;exitDy=0;exitPerimeter=0;" edge="1" parent="1" source="a4DZ9cBPCvFceiV7oDwn-1" target="a4DZ9cBPCvFceiV7oDwn-27">
          <mxGeometry relative="1" as="geometry" />
        </mxCell>
        <mxCell id="a4DZ9cBPCvFceiV7oDwn-29" value="СМС информирование" style="edgeLabel;html=1;align=center;verticalAlign=middle;resizable=0;points=[];" vertex="1" connectable="0" parent="a4DZ9cBPCvFceiV7oDwn-28">
          <mxGeometry x="0.0776" y="-4" relative="1" as="geometry">
            <mxPoint as="offset" />
          </mxGeometry>
        </mxCell>
        <mxCell id="a4DZ9cBPCvFceiV7oDwn-42" style="edgeStyle=orthogonalEdgeStyle;rounded=0;orthogonalLoop=1;jettySize=auto;html=1;" edge="1" parent="1" source="a4DZ9cBPCvFceiV7oDwn-1" target="a4DZ9cBPCvFceiV7oDwn-39">
          <mxGeometry relative="1" as="geometry" />
        </mxCell>
        <mxCell id="a4DZ9cBPCvFceiV7oDwn-43" value="Передача заявок по кредитам" style="edgeLabel;html=1;align=center;verticalAlign=middle;resizable=0;points=[];" vertex="1" connectable="0" parent="a4DZ9cBPCvFceiV7oDwn-42">
          <mxGeometry x="-0.0348" y="-1" relative="1" as="geometry">
            <mxPoint y="16" as="offset" />
          </mxGeometry>
        </mxCell>
        <mxCell id="a4DZ9cBPCvFceiV7oDwn-1" value="АБС" style="rounded=1;whiteSpace=wrap;html=1;" vertex="1" parent="1">
          <mxGeometry x="230" y="40" width="340" height="400" as="geometry" />
        </mxCell>
        <mxCell id="a4DZ9cBPCvFceiV7oDwn-11" style="edgeStyle=orthogonalEdgeStyle;rounded=0;orthogonalLoop=1;jettySize=auto;html=1;entryX=0;entryY=0.5;entryDx=0;entryDy=0;" edge="1" parent="1" source="a4DZ9cBPCvFceiV7oDwn-2" target="a4DZ9cBPCvFceiV7oDwn-1">
          <mxGeometry relative="1" as="geometry" />
        </mxCell>
        <mxCell id="a4DZ9cBPCvFceiV7oDwn-12" value="Заведение заявок&lt;div&gt;&lt;br&gt;&lt;/div&gt;" style="edgeLabel;html=1;align=center;verticalAlign=middle;resizable=0;points=[];" vertex="1" connectable="0" parent="a4DZ9cBPCvFceiV7oDwn-11">
          <mxGeometry x="-0.0927" y="-3" relative="1" as="geometry">
            <mxPoint y="3" as="offset" />
          </mxGeometry>
        </mxCell>
        <mxCell id="a4DZ9cBPCvFceiV7oDwn-34" style="edgeStyle=orthogonalEdgeStyle;rounded=0;orthogonalLoop=1;jettySize=auto;html=1;entryX=0.5;entryY=0;entryDx=0;entryDy=0;" edge="1" parent="1" source="a4DZ9cBPCvFceiV7oDwn-2" target="a4DZ9cBPCvFceiV7oDwn-32">
          <mxGeometry relative="1" as="geometry">
            <Array as="points">
              <mxPoint x="35" y="390" />
              <mxPoint x="128" y="390" />
            </Array>
          </mxGeometry>
        </mxCell>
        <mxCell id="a4DZ9cBPCvFceiV7oDwn-35" value="Просмотр маркетинговой информации" style="edgeLabel;html=1;align=center;verticalAlign=middle;resizable=0;points=[];" vertex="1" connectable="0" parent="a4DZ9cBPCvFceiV7oDwn-34">
          <mxGeometry x="0.6143" y="3" relative="1" as="geometry">
            <mxPoint as="offset" />
          </mxGeometry>
        </mxCell>
        <mxCell id="a4DZ9cBPCvFceiV7oDwn-2" value="Фронт-менеджер" style="shape=umlActor;verticalLabelPosition=bottom;verticalAlign=top;html=1;outlineConnect=0;" vertex="1" parent="1">
          <mxGeometry x="20" y="280" width="30" height="60" as="geometry" />
        </mxCell>
        <mxCell id="a4DZ9cBPCvFceiV7oDwn-13" style="edgeStyle=orthogonalEdgeStyle;rounded=0;orthogonalLoop=1;jettySize=auto;html=1;entryX=0;entryY=0.5;entryDx=0;entryDy=0;" edge="1" parent="1" source="a4DZ9cBPCvFceiV7oDwn-3" target="a4DZ9cBPCvFceiV7oDwn-1">
          <mxGeometry relative="1" as="geometry" />
        </mxCell>
        <mxCell id="a4DZ9cBPCvFceiV7oDwn-17" value="Обработка заявок" style="edgeLabel;html=1;align=center;verticalAlign=middle;resizable=0;points=[];" vertex="1" connectable="0" parent="a4DZ9cBPCvFceiV7oDwn-13">
          <mxGeometry x="-0.0138" y="-2" relative="1" as="geometry">
            <mxPoint y="-33" as="offset" />
          </mxGeometry>
        </mxCell>
        <mxCell id="a4DZ9cBPCvFceiV7oDwn-40" style="edgeStyle=orthogonalEdgeStyle;rounded=0;orthogonalLoop=1;jettySize=auto;html=1;entryX=0;entryY=0.5;entryDx=0;entryDy=0;" edge="1" parent="1" source="a4DZ9cBPCvFceiV7oDwn-3" target="a4DZ9cBPCvFceiV7oDwn-39">
          <mxGeometry relative="1" as="geometry">
            <Array as="points">
              <mxPoint x="35" y="20" />
              <mxPoint x="110" y="20" />
              <mxPoint x="110" y="-40" />
              <mxPoint x="180" y="-40" />
              <mxPoint x="180" y="-80" />
            </Array>
          </mxGeometry>
        </mxCell>
        <mxCell id="a4DZ9cBPCvFceiV7oDwn-41" value="Одобрение заявок" style="edgeLabel;html=1;align=center;verticalAlign=middle;resizable=0;points=[];" vertex="1" connectable="0" parent="a4DZ9cBPCvFceiV7oDwn-40">
          <mxGeometry x="0.1535" y="1" relative="1" as="geometry">
            <mxPoint y="16" as="offset" />
          </mxGeometry>
        </mxCell>
        <mxCell id="a4DZ9cBPCvFceiV7oDwn-3" value="Кредитный менеджер" style="shape=umlActor;verticalLabelPosition=bottom;verticalAlign=top;html=1;outlineConnect=0;" vertex="1" parent="1">
          <mxGeometry x="20" y="40" width="30" height="60" as="geometry" />
        </mxCell>
        <mxCell id="a4DZ9cBPCvFceiV7oDwn-18" style="edgeStyle=orthogonalEdgeStyle;rounded=0;orthogonalLoop=1;jettySize=auto;html=1;entryX=0;entryY=0.5;entryDx=0;entryDy=0;" edge="1" parent="1" source="a4DZ9cBPCvFceiV7oDwn-4" target="a4DZ9cBPCvFceiV7oDwn-1">
          <mxGeometry relative="1" as="geometry" />
        </mxCell>
        <mxCell id="a4DZ9cBPCvFceiV7oDwn-19" value="Обработка заявок" style="edgeLabel;html=1;align=center;verticalAlign=middle;resizable=0;points=[];" vertex="1" connectable="0" parent="a4DZ9cBPCvFceiV7oDwn-18">
          <mxGeometry x="0.0105" relative="1" as="geometry">
            <mxPoint as="offset" />
          </mxGeometry>
        </mxCell>
        <mxCell id="a4DZ9cBPCvFceiV7oDwn-4" value="Депозитный менеджер" style="shape=umlActor;verticalLabelPosition=bottom;verticalAlign=top;html=1;outlineConnect=0;" vertex="1" parent="1">
          <mxGeometry x="20" y="150" width="30" height="60" as="geometry" />
        </mxCell>
        <mxCell id="a4DZ9cBPCvFceiV7oDwn-23" style="edgeStyle=orthogonalEdgeStyle;rounded=0;orthogonalLoop=1;jettySize=auto;html=1;entryX=0;entryY=0.5;entryDx=0;entryDy=0;" edge="1" parent="1" source="a4DZ9cBPCvFceiV7oDwn-6" target="a4DZ9cBPCvFceiV7oDwn-22">
          <mxGeometry relative="1" as="geometry" />
        </mxCell>
        <mxCell id="a4DZ9cBPCvFceiV7oDwn-24" value="Заведение заявок" style="edgeLabel;html=1;align=center;verticalAlign=middle;resizable=0;points=[];" vertex="1" connectable="0" parent="a4DZ9cBPCvFceiV7oDwn-23">
          <mxGeometry x="0.0588" y="-6" relative="1" as="geometry">
            <mxPoint as="offset" />
          </mxGeometry>
        </mxCell>
        <mxCell id="a4DZ9cBPCvFceiV7oDwn-6" value="Сотрудник кол-центра" style="shape=umlActor;verticalLabelPosition=bottom;verticalAlign=top;html=1;outlineConnect=0;" vertex="1" parent="1">
          <mxGeometry x="30" y="655" width="30" height="60" as="geometry" />
        </mxCell>
        <mxCell id="a4DZ9cBPCvFceiV7oDwn-20" style="edgeStyle=orthogonalEdgeStyle;rounded=0;orthogonalLoop=1;jettySize=auto;html=1;entryX=1.006;entryY=0.525;entryDx=0;entryDy=0;entryPerimeter=0;" edge="1" parent="1" source="a4DZ9cBPCvFceiV7oDwn-7" target="a4DZ9cBPCvFceiV7oDwn-1">
          <mxGeometry relative="1" as="geometry" />
        </mxCell>
        <mxCell id="a4DZ9cBPCvFceiV7oDwn-21" value="Доработка системы" style="edgeLabel;html=1;align=center;verticalAlign=middle;resizable=0;points=[];" vertex="1" connectable="0" parent="a4DZ9cBPCvFceiV7oDwn-20">
          <mxGeometry x="-0.1829" y="-1" relative="1" as="geometry">
            <mxPoint as="offset" />
          </mxGeometry>
        </mxCell>
        <mxCell id="a4DZ9cBPCvFceiV7oDwn-30" style="edgeStyle=orthogonalEdgeStyle;rounded=0;orthogonalLoop=1;jettySize=auto;html=1;entryX=0.5;entryY=0;entryDx=0;entryDy=0;" edge="1" parent="1" source="a4DZ9cBPCvFceiV7oDwn-7" target="a4DZ9cBPCvFceiV7oDwn-27">
          <mxGeometry relative="1" as="geometry" />
        </mxCell>
        <mxCell id="a4DZ9cBPCvFceiV7oDwn-31" value="Доработка системы" style="edgeLabel;html=1;align=center;verticalAlign=middle;resizable=0;points=[];" vertex="1" connectable="0" parent="a4DZ9cBPCvFceiV7oDwn-30">
          <mxGeometry x="0.0211" y="3" relative="1" as="geometry">
            <mxPoint as="offset" />
          </mxGeometry>
        </mxCell>
        <mxCell id="a4DZ9cBPCvFceiV7oDwn-44" style="edgeStyle=orthogonalEdgeStyle;rounded=0;orthogonalLoop=1;jettySize=auto;html=1;entryX=1;entryY=0.5;entryDx=0;entryDy=0;" edge="1" parent="1" source="a4DZ9cBPCvFceiV7oDwn-7" target="a4DZ9cBPCvFceiV7oDwn-39">
          <mxGeometry relative="1" as="geometry">
            <Array as="points">
              <mxPoint x="745" y="-40" />
              <mxPoint x="525" y="-40" />
              <mxPoint x="525" y="-80" />
            </Array>
          </mxGeometry>
        </mxCell>
        <mxCell id="a4DZ9cBPCvFceiV7oDwn-45" value="Доработка системы" style="edgeLabel;html=1;align=center;verticalAlign=middle;resizable=0;points=[];" vertex="1" connectable="0" parent="a4DZ9cBPCvFceiV7oDwn-44">
          <mxGeometry x="0.1276" relative="1" as="geometry">
            <mxPoint as="offset" />
          </mxGeometry>
        </mxCell>
        <mxCell id="a4DZ9cBPCvFceiV7oDwn-49" style="edgeStyle=orthogonalEdgeStyle;rounded=0;orthogonalLoop=1;jettySize=auto;html=1;entryX=1;entryY=0.5;entryDx=0;entryDy=0;" edge="1" parent="1" source="a4DZ9cBPCvFceiV7oDwn-7" target="a4DZ9cBPCvFceiV7oDwn-46">
          <mxGeometry relative="1" as="geometry">
            <Array as="points">
              <mxPoint x="745" y="-40" />
              <mxPoint x="595" y="-40" />
              <mxPoint x="595" y="-240" />
            </Array>
          </mxGeometry>
        </mxCell>
        <mxCell id="a4DZ9cBPCvFceiV7oDwn-7" value="Сотрудник ит отдела" style="shape=umlActor;verticalLabelPosition=bottom;verticalAlign=top;html=1;outlineConnect=0;" vertex="1" parent="1">
          <mxGeometry x="730" y="20" width="30" height="60" as="geometry" />
        </mxCell>
        <mxCell id="a4DZ9cBPCvFceiV7oDwn-25" style="edgeStyle=orthogonalEdgeStyle;rounded=0;orthogonalLoop=1;jettySize=auto;html=1;" edge="1" parent="1" source="a4DZ9cBPCvFceiV7oDwn-22" target="a4DZ9cBPCvFceiV7oDwn-1">
          <mxGeometry relative="1" as="geometry" />
        </mxCell>
        <mxCell id="a4DZ9cBPCvFceiV7oDwn-26" value="Передача заявок" style="edgeLabel;html=1;align=center;verticalAlign=middle;resizable=0;points=[];" vertex="1" connectable="0" parent="a4DZ9cBPCvFceiV7oDwn-25">
          <mxGeometry x="0.6609" y="-1" relative="1" as="geometry">
            <mxPoint as="offset" />
          </mxGeometry>
        </mxCell>
        <mxCell id="a4DZ9cBPCvFceiV7oDwn-22" value="Система кол-центра" style="rounded=1;whiteSpace=wrap;html=1;" vertex="1" parent="1">
          <mxGeometry x="230" y="575" width="150" height="80" as="geometry" />
        </mxCell>
        <mxCell id="a4DZ9cBPCvFceiV7oDwn-27" value="&lt;strong style=&quot;white-space-collapse: preserve-breaks; box-sizing: inherit; caret-color: rgb(214, 214, 214); color: rgb(214, 214, 214); font-family: &amp;quot;YS Text&amp;quot;, sans-serif; text-align: left;&quot;&gt;&lt;font&gt;СМС-шлюз телеком-оператора&lt;/font&gt;&lt;/strong&gt;" style="rounded=1;whiteSpace=wrap;html=1;" vertex="1" parent="1">
          <mxGeometry x="685" y="460" width="120" height="60" as="geometry" />
        </mxCell>
        <mxCell id="a4DZ9cBPCvFceiV7oDwn-32" value="Сайт" style="rounded=1;whiteSpace=wrap;html=1;" vertex="1" parent="1">
          <mxGeometry x="50" y="470" width="156" height="50" as="geometry" />
        </mxCell>
        <mxCell id="a4DZ9cBPCvFceiV7oDwn-47" style="edgeStyle=orthogonalEdgeStyle;rounded=0;orthogonalLoop=1;jettySize=auto;html=1;" edge="1" parent="1" source="a4DZ9cBPCvFceiV7oDwn-39" target="a4DZ9cBPCvFceiV7oDwn-46">
          <mxGeometry relative="1" as="geometry">
            <Array as="points">
              <mxPoint x="260" y="-150" />
              <mxPoint x="400" y="-150" />
            </Array>
          </mxGeometry>
        </mxCell>
        <mxCell id="a4DZ9cBPCvFceiV7oDwn-48" value="Вызов АПИ для анализа клиента" style="edgeLabel;html=1;align=center;verticalAlign=middle;resizable=0;points=[];" vertex="1" connectable="0" parent="a4DZ9cBPCvFceiV7oDwn-47">
          <mxGeometry x="0.7333" y="-1" relative="1" as="geometry">
            <mxPoint as="offset" />
          </mxGeometry>
        </mxCell>
        <mxCell id="a4DZ9cBPCvFceiV7oDwn-39" value="&lt;strong style=&quot;white-space-collapse: preserve-breaks; box-sizing: inherit; caret-color: rgb(214, 214, 214); color: rgb(214, 214, 214); font-family: &amp;quot;YS Text&amp;quot;, sans-serif; text-align: left;&quot;&gt;&lt;font style=&quot;font-size: 14px;&quot;&gt;Кредитный конвейер&lt;/font&gt;&lt;/strong&gt;" style="rounded=1;whiteSpace=wrap;html=1;" vertex="1" parent="1">
          <mxGeometry x="200" y="-110" width="120" height="60" as="geometry" />
        </mxCell>
        <mxCell id="a4DZ9cBPCvFceiV7oDwn-46" value="&lt;strong style=&quot;box-sizing: inherit; caret-color: rgb(214, 214, 214); color: rgb(214, 214, 214); font-family: &amp;quot;YS Text&amp;quot;, sans-serif; text-align: left; white-space-collapse: preserve-breaks;&quot;&gt;&lt;font style=&quot;font-size: 14px;&quot;&gt;Система кредитного скоринга&lt;/font&gt;&lt;/strong&gt;" style="rounded=1;whiteSpace=wrap;html=1;" vertex="1" parent="1">
          <mxGeometry x="340" y="-270" width="120" height="60" as="geometry" />
        </mxCell>
      </root>
    </mxGraphModel>
  </diagram>
</mxfile>
